<svg width="36" height="36" viewBox="0 0 36 36" fill="none" xmlns="http://www.w3.org/2000/svg">
<path d="M5.38574 11.608V6.57954C5.38574 4.61932 7.00506 3 8.96528 3H28.1414" stroke="#FF671F" stroke-width="1.5" stroke-linecap="round" stroke-linejoin="round"/>
<path d="M17.7437 28.6539H5.38574V15.0176" stroke="#FF671F" stroke-width="1.5" stroke-linecap="round" stroke-linejoin="round"/>
<path d="M25.6698 6.58008V28.6539H21.6641" stroke="#FF671F" stroke-width="1.5" stroke-linecap="round" stroke-linejoin="round"/>
<path d="M25.6699 10.4997V5.55655C25.6699 4.19292 26.7779 3.08496 28.1415 3.08496C29.5051 3.08496 30.6131 4.19292 30.6131 5.55655V6.92019H28.1415" stroke="#FF671F" stroke-width="1.5" stroke-linecap="round" stroke-linejoin="round"/>
<path d="M25.6699 28.6531V14.6758" stroke="#FF671F" stroke-width="1.5" stroke-linecap="round" stroke-linejoin="round"/>
<path d="M9.05078 10.0742H21.6644" stroke="#FF671F" stroke-width="1.5" stroke-linecap="round" stroke-linejoin="round"/>
<path d="M9.05078 12.6309H21.6644" stroke="#FF671F" stroke-width="1.5" stroke-linecap="round" stroke-linejoin="round"/>
<path d="M9.05078 15.1875H21.6644" stroke="#FF671F" stroke-width="1.5" stroke-linecap="round" stroke-linejoin="round"/>
<path d="M22.8576 22.2608C22.8576 20.4711 21.4087 19.1074 19.7042 19.1074C17.9144 19.1074 16.5508 20.5563 16.5508 22.2608C16.5508 24.0506 17.9996 25.4142 19.7042 25.4142C21.4087 25.329 22.8576 24.0506 22.8576 22.2608Z" stroke="#FF671F" stroke-width="1.5" stroke-linecap="round" stroke-linejoin="round"/>
<path d="M17.7432 24.8174V32.9992L19.7034 31.806L21.6636 32.9992V24.8174" stroke="#FF671F" stroke-width="1.5" stroke-linecap="round" stroke-linejoin="round"/>
</svg>
